# xmcd
#
# Track frame offsets:
#	180
#	17852
#	32520
#	48970
#	62516
#	76196
#	93140
#	107393
#	123782
#	142393
#
# Disc length: 2025 seconds
#
# Revision: 0
# Processed by: cddbd v1.5.1PL0 Copyright (c) Steve Scherf et al.
# Submitted via: dBpowerAMP V4.0
#
DISCID=7207e70a
DTITLE=marianne molina - une voix en or
DYEAR=1999
DGENRE=Vocal
TTITLE0=amour mortel
TTITLE1=toi et moi
TTITLE2=quand je te parle d'amour
TTITLE3=deux histoires
TTITLE4=didn't mean
TTITLE5=trahison
TTITLE6=je me souviens
TTITLE7=ya habibi
TTITLE8=le blues de toi
TTITLE9=amour mortel
EXTD=marianne molina une voix en or\n
EXTT0=
EXTT1=
EXTT2=
EXTT3=
EXTT4=
EXTT5=
EXTT6=
EXTT7=
EXTT8=
EXTT9=
PLAYORDER=
